
        <svg xmlns="http://www.w3.org/2000/svg" xmlns:xlink="http://www.w3.org/1999/xlink" version="1.1" width="3198.049183289035" 
        height="1859.8461916943027" viewBox="0 0 3198.049183289035 1859.8461916943027">
			
			<g transform="scale(9.902459164451782) translate(10, 10)">
				<defs id="SvgjsDefs2190"></defs><g id="SvgjsG2191" featureKey="ewgXDI-0" transform="matrix(7.547459508601531,0,0,7.547459508601531,-7.698406755362623,-14.22811372809953)" fill="#ff8264"><path d="M4.18 5.859999999999999 l0 2.66 l-3.16 0 l0 -2.66 l3.16 0 z M4.18 9.6 l0 10.4 l-3.16 0 l0 -10.4 l3.16 0 z M13.7 9.6 l3.16 0 l0 10.4 c0 3.16 -3.2 4.12 -5.52 4.12 c-1.1 0 -2.1 -0.18 -2.74 -0.52 l0 -2.58 c0.64 0.34 1.6 0.48 2.74 0.48 c1.86 0 2.36 -0.96 2.36 -1.5 l0 -1.04 c-0.14 0.36 -1.08 1.24 -2.68 1.24 c-2.38 0 -5.12 -1.7 -5.12 -5.42 c0 -3.58 2.74 -5.36 5.12 -5.36 c1.6 0 2.54 0.92 2.68 1.14 l0 -0.96 z M11.48 17.42 c1.3 0 2.36 -0.9 2.36 -2.64 c0 -1.68 -1.06 -2.58 -2.36 -2.58 c-1.36 0 -2.52 0.92 -2.52 2.58 c0 1.72 1.16 2.64 2.52 2.64 z M24.06 9.42 c2.36 0 5.66 1.78 5 6.48 l-7.26 0 c0.36 1.08 1.3 1.64 2.56 1.64 c1.28 0 1.68 -0.28 2.4 -0.58 l1.74 1.68 c-0.92 0.9 -2.16 1.56 -4.26 1.56 c-2.58 0 -5.66 -1.78 -5.66 -5.36 c0 -3.64 3.12 -5.42 5.48 -5.42 z M24.06 12.120000000000001 c-0.9 0 -1.82 0.52 -2.22 1.56 l4.42 0 c-0.32 -1.04 -1.3 -1.56 -2.2 -1.56 z M37.24 9.44 c1.94 0 3.92 1.3 3.92 4.6 l0 5.96 l-3.16 0 l0 -5.74 c0 -1.58 -0.54 -2.08 -1.54 -2.08 c-1.42 0 -2.24 1.38 -2.44 1.98 l0 5.84 l-3.16 0 l0 -10.4 l3.16 0 l0 1.8 c0.2 -0.5 1.26 -1.96 3.22 -1.96 z"></path></g>
			</g>
		</svg>
	